HIERARCHY
ROOT newVegas:Hips
{
	OFFSET 0.000000 96.479958 0.000000
	CHANNELS 6 Xposition Yposition Zposition Xrotation Yrotation Zrotation
	JOINT newVegas:Pelvis
	{
		OFFSET 0.000000 0.000000 0.000000
		CHANNELS 3 Xrotation Yrotation Zrotation
		JOINT newVegas:LeftUpLeg
		{
			OFFSET 18.735201 -5.666702 -4.541200
			CHANNELS 3 Xrotation Yrotation Zrotation
			JOINT newVegas:LeftLeg
			{
				OFFSET -0.021200 -31.938179 0.493100
				CHANNELS 3 Xrotation Yrotation Zrotation
				JOINT newVegas:LeftFoot
				{
					OFFSET 0.021200 -31.938179 -4.336299
					CHANNELS 3 Xrotation Yrotation Zrotation
					JOINT newVegas:LeftToeBase
					{
						OFFSET 0.943001 -26.722000 15.023500
						CHANNELS 3 Xrotation Yrotation Zrotation
						End Site
						{
							OFFSET 0.000000 30.670183 0.000000
						}
					}
				}
				JOINT newVegas:Left_PantLeg
				{
					OFFSET 0.663870 -9.044666 -1.108900
					CHANNELS 3 Xrotation Yrotation Zrotation
					End Site
					{
						OFFSET 1.415995 20.635357 0.000000
					}
				}
			}
		}
		JOINT newVegas:RightUpLeg
		{
			OFFSET -18.735201 -5.666702 -4.541200
			CHANNELS 3 Xrotation Yrotation Zrotation
			JOINT newVegas:RightLeg
			{
				OFFSET 0.018946 -31.938133 0.493100
				CHANNELS 3 Xrotation Yrotation Zrotation
				JOINT newVegas:RightFoot
				{
					OFFSET -0.018946 -31.938126 -4.336299
					CHANNELS 3 Xrotation Yrotation Zrotation
					JOINT newVegas:RightToeBase
					{
						OFFSET -0.943001 -26.722004 15.023500
						CHANNELS 3 Xrotation Yrotation Zrotation
						End Site
						{
							OFFSET 0.000000 30.670187 0.000000
						}
					}
				}
				JOINT newVegas:Right_PantLeg
				{
					OFFSET -0.661674 -9.044716 -1.108900
					CHANNELS 3 Xrotation Yrotation Zrotation
					End Site
					{
						OFFSET -1.415958 20.635269 0.000000
					}
				}
			}
		}
	}
	JOINT newVegas:Spine
	{
		OFFSET 0.000000 10.199997 -0.299500
		CHANNELS 3 Xrotation Yrotation Zrotation
		JOINT newVegas:Spine1
		{
			OFFSET 0.000000 11.900002 -1.516600
			CHANNELS 3 Xrotation Yrotation Zrotation
			JOINT newVegas:Spine2
			{
				OFFSET 0.000000 13.600006 -2.842500
				CHANNELS 3 Xrotation Yrotation Zrotation
				JOINT newVegas:Neck
				{
					OFFSET 0.000000 9.624100 -2.890100
					CHANNELS 3 Xrotation Yrotation Zrotation
					JOINT newVegas:Head
					{
						OFFSET 0.000000 14.068802 -1.351900
						CHANNELS 3 Xrotation Yrotation Zrotation
						JOINT newVegas:Hair_Back
						{
							OFFSET 0.000000 3.231903 -17.524799
							CHANNELS 3 Xrotation Yrotation Zrotation
							End Site
							{
								OFFSET 0.000000 19.849884 0.000000
							}
						}
						JOINT newVegas:Hair_Front
						{
							OFFSET 0.000000 31.260406 4.573800
							CHANNELS 3 Xrotation Yrotation Zrotation
							JOINT newVegas:Hair_Front1
							{
								OFFSET 0.000000 2.284103 11.993300
								CHANNELS 3 Xrotation Yrotation Zrotation
								JOINT newVegas:Hair_Front2
								{
									OFFSET 0.000000 2.284103 11.993300
									CHANNELS 3 Xrotation Yrotation Zrotation
									End Site
									{
										OFFSET 0.000000 12.208862 0.000000
									}
								}
							}
						}
						JOINT newVegas:Jowel
						{
							OFFSET 0.000000 -7.458206 6.864100
							CHANNELS 3 Xrotation Yrotation Zrotation
							End Site
							{
								OFFSET 0.000000 19.849884 0.000000
							}
						}
					}
				}
				JOINT newVegas:LeftShoulder
				{
					OFFSET 15.263000 10.923401 -0.547700
					CHANNELS 3 Xrotation Yrotation Zrotation
					JOINT newVegas:LeftArm
					{
						OFFSET 25.438599 -2.830597 -13.032500
						CHANNELS 3 Xrotation Yrotation Zrotation
						JOINT newVegas:LeftForeArm
						{
							OFFSET 29.960503 0.000000 0.000000
							CHANNELS 3 Xrotation Yrotation Zrotation
							JOINT newVegas:LeftHand
							{
								OFFSET 27.849251 0.000000 0.000000
								CHANNELS 3 Xrotation Yrotation Zrotation
								JOINT newVegas:LeftHandThumb1
								{
									OFFSET 4.487587 -3.305161 6.305391
									CHANNELS 3 Xrotation Yrotation Zrotation
									JOINT newVegas:LeftHandThumb2
									{
										OFFSET 5.480453 -3.164139 3.164143
										CHANNELS 3 Xrotation Yrotation Zrotation
										JOINT newVegas:LeftHandThumb3
										{
											OFFSET 5.159721 -2.978973 2.978967
											CHANNELS 3 Xrotation Yrotation Zrotation
											End Site
											{
												OFFSET 2.494507 5.926697 1.738678
											}
										}
									}
								}
								JOINT newVegas:LeftHandIndex1
								{
									OFFSET 18.578728 -0.527832 5.208049
									CHANNELS 3 Xrotation Yrotation Zrotation
									JOINT newVegas:LeftHandIndex2
									{
										OFFSET 3.192009 0.000000 0.000000
										CHANNELS 3 Xrotation Yrotation Zrotation
										JOINT newVegas:LeftHandIndex3
										{
											OFFSET 3.835129 0.000000 0.000000
											CHANNELS 3 Xrotation Yrotation Zrotation
											End Site
											{
												OFFSET -0.034599 3.816971 0.371180
											}
										}
									}
								}
								JOINT newVegas:LeftHandMiddle1
								{
									OFFSET 18.476105 0.000000 0.000000
									CHANNELS 3 Xrotation Yrotation Zrotation
									JOINT newVegas:LeftHandMiddle2
									{
										OFFSET 3.324875 0.000000 0.000000
										CHANNELS 3 Xrotation Yrotation Zrotation
										JOINT newVegas:LeftHandMiddle3
										{
											OFFSET 4.596550 0.000000 0.000000
											CHANNELS 3 Xrotation Yrotation Zrotation
											End Site
											{
												OFFSET 0.057701 4.578827 0.399218
											}
										}
									}
								}
								JOINT newVegas:LeftHandRing1
								{
									OFFSET 17.732719 0.121887 -4.201567
									CHANNELS 3 Xrotation Yrotation Zrotation
									JOINT newVegas:LeftHandRing2
									{
										OFFSET 2.733170 0.000000 0.000000
										CHANNELS 3 Xrotation Yrotation Zrotation
										JOINT newVegas:LeftHandRing3
										{
											OFFSET 3.178268 0.000000 0.000000
											CHANNELS 3 Xrotation Yrotation Zrotation
											End Site
											{
												OFFSET 0.119102 3.170624 0.185394
											}
										}
									}
								}
								JOINT newVegas:LeftHandPinky1
								{
									OFFSET 15.989624 -0.606689 -7.535461
									CHANNELS 3 Xrotation Yrotation Zrotation
									JOINT newVegas:LeftHandPinky2
									{
										OFFSET 2.538986 0.000000 0.000000
										CHANNELS 3 Xrotation Yrotation Zrotation
										JOINT newVegas:LeftHandPinky3
										{
											OFFSET 2.593102 0.000000 0.000000
											CHANNELS 3 Xrotation Yrotation Zrotation
											End Site
											{
												OFFSET -0.150902 2.584198 0.152708
											}
										}
									}
								}
							}
							JOINT newVegas:Left_Sleeve
							{
								OFFSET 0.267448 -0.649796 0.577675
								CHANNELS 3 Xrotation Yrotation Zrotation
								End Site
								{
									OFFSET 0.000000 15.991241 0.000000
								}
							}
							JOINT newVegas:Left_CapeC
							{
								OFFSET 15.715958 -8.608795 -6.935905
								CHANNELS 3 Xrotation Yrotation Zrotation
								JOINT newVegas:Left_CapeC1
								{
									OFFSET 0.000000 -8.688499 0.000000
									CHANNELS 3 Xrotation Yrotation Zrotation
									End Site
									{
										OFFSET 0.000000 8.688499 0.000000
									}
								}
							}
						}
						JOINT newVegas:Left_CapeB
						{
							OFFSET 26.118385 -8.608795 -7.079235
							CHANNELS 3 Xrotation Yrotation Zrotation
							JOINT newVegas:Left_CapeB1
							{
								OFFSET 0.000000 -8.688499 0.000000
								CHANNELS 3 Xrotation Yrotation Zrotation
								End Site
								{
									OFFSET 0.000000 8.688499 0.000000
								}
							}
						}
						JOINT newVegas:Left_CapeA
						{
							OFFSET 5.115639 -8.608795 -10.395809
							CHANNELS 3 Xrotation Yrotation Zrotation
							JOINT newVegas:Left_CapeA1
							{
								OFFSET 0.000000 -8.688499 0.000000
								CHANNELS 3 Xrotation Yrotation Zrotation
								End Site
								{
									OFFSET 0.000000 8.688499 0.000000
								}
							}
						}
					}
				}
				JOINT newVegas:RightShoulder
				{
					OFFSET -15.263000 10.923401 -0.547700
					CHANNELS 3 Xrotation Yrotation Zrotation
					JOINT newVegas:RightArm
					{
						OFFSET -25.438599 -2.830597 -13.032500
						CHANNELS 3 Xrotation Yrotation Zrotation
						JOINT newVegas:RightForeArm
						{
							OFFSET -29.960503 0.000000 0.000000
							CHANNELS 3 Xrotation Yrotation Zrotation
							JOINT newVegas:RightHand
							{
								OFFSET -27.849251 0.000000 0.000000
								CHANNELS 3 Xrotation Yrotation Zrotation
								JOINT newVegas:RightHandThumb1
								{
									OFFSET -4.487587 -3.305161 6.305391
									CHANNELS 3 Xrotation Yrotation Zrotation
									JOINT newVegas:RightHandThumb2
									{
										OFFSET -5.480453 -3.164139 3.164143
										CHANNELS 3 Xrotation Yrotation Zrotation
										JOINT newVegas:RightHandThumb3
										{
											OFFSET -5.159721 -2.978973 2.978967
											CHANNELS 3 Xrotation Yrotation Zrotation
											End Site
											{
												OFFSET -2.494507 5.926697 1.738678
											}
										}
									}
								}
								JOINT newVegas:RightHandIndex1
								{
									OFFSET -18.578728 -0.527832 5.208049
									CHANNELS 3 Xrotation Yrotation Zrotation
									JOINT newVegas:RightHandIndex2
									{
										OFFSET -3.192009 0.000000 0.000000
										CHANNELS 3 Xrotation Yrotation Zrotation
										JOINT newVegas:RightHandIndex3
										{
											OFFSET -3.835129 0.000000 0.000000
											CHANNELS 3 Xrotation Yrotation Zrotation
											End Site
											{
												OFFSET 0.034599 3.816971 0.371180
											}
										}
									}
								}
								JOINT newVegas:RightHandMiddle1
								{
									OFFSET -18.476105 0.000000 0.000000
									CHANNELS 3 Xrotation Yrotation Zrotation
									JOINT newVegas:RightHandMiddle2
									{
										OFFSET -3.324875 0.000000 0.000000
										CHANNELS 3 Xrotation Yrotation Zrotation
										JOINT newVegas:RightHandMiddle3
										{
											OFFSET -4.596550 0.000000 0.000000
											CHANNELS 3 Xrotation Yrotation Zrotation
											End Site
											{
												OFFSET -0.057701 4.578827 0.399218
											}
										}
									}
								}
								JOINT newVegas:RightHandRing1
								{
									OFFSET -17.732719 0.121887 -4.201567
									CHANNELS 3 Xrotation Yrotation Zrotation
									JOINT newVegas:RightHandRing2
									{
										OFFSET -2.733170 0.000000 0.000000
										CHANNELS 3 Xrotation Yrotation Zrotation
										JOINT newVegas:RightHandRing3
										{
											OFFSET -3.178268 0.000000 0.000000
											CHANNELS 3 Xrotation Yrotation Zrotation
											End Site
											{
												OFFSET -0.119102 3.170624 0.185394
											}
										}
									}
								}
								JOINT newVegas:RightHandPinky1
								{
									OFFSET -15.989624 -0.606689 -7.535461
									CHANNELS 3 Xrotation Yrotation Zrotation
									JOINT newVegas:RightHandPinky2
									{
										OFFSET -2.538986 0.000000 0.000000
										CHANNELS 3 Xrotation Yrotation Zrotation
										JOINT newVegas:RightHandPinky3
										{
											OFFSET -2.593102 0.000000 0.000000
											CHANNELS 3 Xrotation Yrotation Zrotation
											End Site
											{
												OFFSET 0.150902 2.584198 0.152708
											}
										}
									}
								}
							}
							JOINT newVegas:Right_CapeC
							{
								OFFSET -15.715958 -8.608795 -6.935905
								CHANNELS 3 Xrotation Yrotation Zrotation
								JOINT newVegas:Right_CapeC1
								{
									OFFSET 0.000000 -8.688499 0.000000
									CHANNELS 3 Xrotation Yrotation Zrotation
									End Site
									{
										OFFSET 0.000000 8.688499 0.000000
									}
								}
							}
							JOINT newVegas:Right_Sleeve
							{
								OFFSET -0.267448 -0.649994 0.577675
								CHANNELS 3 Xrotation Yrotation Zrotation
								End Site
								{
									OFFSET 0.000000 15.991302 0.000000
								}
							}
						}
						JOINT newVegas:Right_CapeA
						{
							OFFSET -5.115540 -8.608795 -10.395824
							CHANNELS 3 Xrotation Yrotation Zrotation
							JOINT newVegas:Right_CapeA1
							{
								OFFSET 0.000000 -8.688499 0.000000
								CHANNELS 3 Xrotation Yrotation Zrotation
								End Site
								{
									OFFSET 0.000000 8.688499 0.000000
								}
							}
						}
						JOINT newVegas:Right_CapeB
						{
							OFFSET -26.118187 -8.608795 -7.079266
							CHANNELS 3 Xrotation Yrotation Zrotation
							JOINT newVegas:Right_CapeB1
							{
								OFFSET 0.000000 -8.688499 0.000000
								CHANNELS 3 Xrotation Yrotation Zrotation
								End Site
								{
									OFFSET 0.000000 8.688499 0.000000
								}
							}
						}
					}
				}
				JOINT newVegas:Left_Collar
				{
					OFFSET 18.625099 8.655502 8.828100
					CHANNELS 3 Xrotation Yrotation Zrotation
					JOINT newVegas:Left_Collar1
					{
						OFFSET 14.783401 10.540405 -1.259500
						CHANNELS 3 Xrotation Yrotation Zrotation
						End Site
						{
							OFFSET 0.000000 18.199875 0.000000
						}
					}
				}
				JOINT newVegas:Collar_Back
				{
					OFFSET 0.000000 15.630707 -20.132601
					CHANNELS 3 Xrotation Yrotation Zrotation
					End Site
					{
						OFFSET 0.000000 22.523010 0.000000
					}
				}
				JOINT newVegas:Left_Peck
				{
					OFFSET 17.239599 -5.132599 25.482599
					CHANNELS 3 Xrotation Yrotation Zrotation
					End Site
					{
						OFFSET 0.000000 22.523010 0.000000
					}
				}
				JOINT newVegas:Right_Peck
				{
					OFFSET -17.239599 -5.132202 25.482599
					CHANNELS 3 Xrotation Yrotation Zrotation
					End Site
					{
						OFFSET 0.000000 22.523010 0.000000
					}
				}
				JOINT newVegas:Right_Collar
				{
					OFFSET -18.625099 8.655792 8.828100
					CHANNELS 3 Xrotation Yrotation Zrotation
					JOINT newVegas:Right_Collar1
					{
						OFFSET -14.783401 10.539993 -1.259500
						CHANNELS 3 Xrotation Yrotation Zrotation
						End Site
						{
							OFFSET 0.000000 18.199631 0.000000
						}
					}
				}
			}
		}
		JOINT newVegas:Belly
		{
			OFFSET 0.000000 -6.540398 9.014299
			CHANNELS 3 Xrotation Yrotation Zrotation
			End Site
			{
				OFFSET 0.000000 11.566666 0.000000
			}
		}
	}
	JOINT newVegas:ElvisFacialAnim_Joint
	{
		OFFSET 1.000000 -95.330101 -8.825800
		CHANNELS 3 Xrotation Yrotation Zrotation
		End Site
		{
			OFFSET 0.000000 35.315800 0.000000
		}
	}
}
MOTION
Frames: 4
Frame Time: 0.033333
3.019468 78.566071 11.444450 96.953026 -73.585268 103.698548 -0.000001 0.000000 -0.000000 -46.734862 7.735205 29.602416 60.284937 -7.645331 -10.940148 -19.533357 17.399786 -14.326656 0.000000 0.000000 -0.000000 0.000001 0.000001 0.000001 -64.688442 7.430846 -40.340071 57.953076 10.540912 1.083822 -14.012370 21.592006 25.817254 0.000000 -0.000000 -0.000000 -0.000000 -0.000001 -0.000000 1.442485 -3.626103 -1.435215 2.409738 -6.875383 -0.957728 2.395558 -6.871952 -0.994613 1.192319 -1.080291 -1.129652 1.192306 -1.080294 -1.129678 -0.000001 -0.000000 0.000000 1.192321 -1.080351 -1.129646 1.192364 -1.080198 -1.129669 0.000001 -0.000001 -0.000000 -0.000001 -0.000000 -0.000000 9.775448 -7.712804 -3.355362 -18.118817 -40.810063 -55.165457 -0.000079 -112.893895 -0.000083 1.098210 -18.821686 21.017274 -1.540029 3.690189 6.142356 3.939035 7.948713 0.746799 0.000000 -0.000004 -0.000003 0.173421 1.624141 -17.881685 0.331797 2.115582 -17.824545 -0.000004 0.000001 -0.000001 0.331199 2.113754 -17.808533 0.332400 2.117413 -17.840557 0.000001 -0.000002 -0.000001 1.328590 5.240768 -17.492603 0.331779 2.115578 -17.824530 -0.000002 0.000001 0.000002 5.318191 17.986303 -16.664234 0.332537 -1.941650 -18.311140 0.000000 -0.000007 0.000001 0.000001 -0.000000 -0.000001 0.000001 -0.000000 -0.000001 0.000000 -0.000000 -0.000001 -0.000000 -0.000001 0.000002 -0.000000 0.000000 0.000002 -0.000000 -0.000001 0.000002 0.000000 -0.000000 0.000002 -4.338977 -5.518121 -0.283199 24.903447 4.178821 15.243860 0.000382 107.842601 -0.000408 -86.960398 -14.433870 3.785270 -1.849249 -3.581801 -6.586139 4.637185 -8.634110 -0.225395 0.000002 -0.000003 -0.000001 0.081626 -1.064527 8.770426 0.081653 -1.064549 8.770414 -0.000000 0.000000 -0.000003 0.081634 -1.064527 8.770419 0.081638 -1.064555 8.770408 -0.000001 0.000002 0.000000 0.652496 -4.856628 8.332424 0.081657 -1.064548 8.770403 0.000002 0.000001 0.000000 1.303740 -9.402410 7.853450 0.081653 -1.064541 8.770396 -0.000000 0.000007 0.000001 -0.000001 -0.000000 -0.000001 -0.000003 -0.000000 0.000002 -0.000001 -0.000001 -0.000001 0.000001 0.000001 0.000001 0.000001 0.000000 0.000001 0.000001 0.000001 0.000001 0.000001 0.000000 0.000003 0.000000 0.000001 -0.000000 0.000000 0.000001 -0.000000 0.000000 0.000001 -0.000000 0.000000 0.000001 -0.000000 0.000000 0.000001 -0.000000 0.000000 0.000001 -0.000000 0.000000 0.000001 -0.000000 0.000000 0.000001 -0.000000 -0.000001 0.000000 -0.000000 
3.645987 78.394974 14.064363 74.707366 -72.382376 80.417459 -0.000000 0.000000 -0.000000 -52.239807 7.210210 27.083795 61.874902 -9.034046 -10.788589 -21.482752 13.975698 -9.639213 0.000000 0.000000 -0.000000 0.000001 0.000002 -0.000000 -61.546876 7.215272 -41.314605 58.174162 11.377403 -1.291719 -15.319291 16.169455 25.319361 0.000000 -0.000000 -0.000000 -0.000000 0.000000 0.000002 1.334461 -3.475089 -1.489899 2.440071 -6.273863 -0.577215 2.427214 -6.280087 -0.602240 0.730053 -0.679573 -1.081277 0.730071 -0.679592 -1.081267 -0.000001 -0.000001 -0.000000 0.730049 -0.679556 -1.081284 0.729985 -0.679608 -1.081269 -0.000003 -0.000000 0.000001 -0.000001 -0.000001 -0.000001 9.870671 -5.387643 -3.988154 -18.827833 -37.001488 -54.535632 0.000024 -116.391068 0.000050 3.729291 -14.602516 23.410344 -1.540037 3.690195 6.142361 3.939040 7.948708 0.746815 0.000003 -0.000005 -0.000002 0.031016 1.094118 -16.313497 0.274954 1.930067 -16.214816 0.000004 -0.000000 0.000002 0.274442 1.928204 -16.198840 0.275509 1.931920 -16.230823 0.000005 -0.000001 -0.000002 1.206897 5.165720 -15.866116 0.274977 1.930070 -16.214816 -0.000002 -0.000001 0.000000 4.841318 18.104699 -14.956323 0.274118 -2.126687 -16.705495 0.000004 0.000002 -0.000001 -0.000000 0.000000 -0.000000 -0.000000 0.000000 -0.000000 -0.000001 0.000001 -0.000000 0.000001 0.000000 -0.000002 0.000001 -0.000000 -0.000003 0.000001 0.000000 -0.000002 -0.000001 0.000001 -0.000002 -5.296007 -4.108238 -0.585134 23.438096 5.974445 14.017934 0.000037 112.647216 -0.000033 -82.511117 -18.386471 -1.826428 -1.849247 -3.581811 -6.586139 4.637182 -8.634133 -0.225389 0.000000 -0.000006 0.000000 0.021347 -0.545690 4.482304 0.021362 -0.545652 4.482309 -0.000001 0.000001 0.000003 0.021351 -0.545681 4.482308 0.021354 -0.545677 4.482304 0.000001 -0.000001 -0.000002 0.321622 -4.590758 4.001246 0.021366 -0.545669 4.482295 -0.000003 0.000001 0.000000 0.639393 -9.437144 3.447847 0.021345 -0.545665 4.482307 0.000002 -0.000000 -0.000002 0.000002 0.000000 -0.000002 0.000002 -0.000001 0.000001 0.000000 0.000001 -0.000002 -0.000002 -0.000001 -0.000002 -0.000002 0.000000 -0.000002 -0.000002 -0.000001 -0.000002 -0.000002 -0.000000 -0.000002 0.000003 -0.000001 0.000000 0.000003 -0.000001 0.000000 0.000003 -0.000001 0.000000 0.000003 -0.000001 0.000000 0.000003 -0.000001 0.000000 0.000003 -0.000001 0.000000 0.000003 -0.000001 0.000000 0.000002 0.000000 0.000000 -0.000000 0.000000 -0.000000 
4.121323 78.584549 17.153835 53.665889 -69.415411 59.135573 -0.000001 -0.000000 -0.000000 -55.815538 8.387337 23.298361 62.023951 -9.955997 -10.560790 -20.531154 10.222479 -6.041835 -0.000000 0.000000 -0.000000 -0.000001 0.000000 0.000001 -56.327931 4.513703 -41.371928 62.982732 9.088069 -5.087465 -26.871984 10.766828 17.264922 0.000000 0.000001 0.000000 0.000001 0.000000 -0.000001 1.555230 -3.125042 -1.820137 2.621573 -5.132821 -0.492292 2.601159 -5.144967 -0.519593 0.566880 0.071870 -1.049076 0.566872 0.071842 -1.049063 -0.000001 0.000000 -0.000000 0.566870 0.071882 -1.049076 0.566881 0.071864 -1.049074 0.000000 0.000000 0.000001 -0.000001 0.000000 -0.000000 9.705891 -3.546942 -4.470100 -18.475392 -33.344550 -51.857829 0.000001 -118.220411 -0.000006 13.539555 -6.016762 30.557033 -1.540039 3.690182 6.142358 3.939061 7.948701 0.746802 -0.000001 0.000000 0.000001 -0.099403 0.519521 -14.849998 0.226323 1.754340 -14.702320 -0.000000 -0.000004 0.000001 0.225865 1.752443 -14.686348 0.226832 1.756190 -14.718339 0.000000 -0.000001 -0.000002 1.097299 5.111875 -14.335848 0.226344 1.754323 -14.702337 0.000001 0.000001 -0.000001 4.379696 18.182647 -13.350285 0.223968 -2.301991 -15.196522 0.000001 -0.000007 -0.000001 0.000001 -0.000003 -0.000000 0.000001 -0.000003 -0.000000 0.000000 -0.000002 0.000000 -0.000000 0.000003 0.000002 -0.000000 0.000003 0.000001 -0.000000 0.000003 0.000002 -0.000001 0.000003 0.000002 -6.292640 -2.075353 -0.722324 20.817787 8.907549 14.599630 0.000040 118.370484 -0.000030 -76.824404 -16.923945 -11.465852 -1.849229 -3.581795 -6.586130 4.637199 -8.634135 -0.225409 0.000001 -0.000008 -0.000003 0.001303 -0.134487 1.103601 0.001300 -0.134475 1.103589 -0.000001 -0.000002 0.000000 0.001308 -0.134484 1.103596 0.001307 -0.134474 1.103591 0.000000 0.000000 0.000000 0.063935 -4.370796 0.589503 0.001300 -0.134475 1.103586 -0.000001 0.000001 0.000001 0.089052 -9.443615 -0.026101 0.001298 -0.134481 1.103605 0.000000 -0.000002 0.000002 -0.000004 -0.000002 -0.000003 -0.000003 0.000001 -0.000003 -0.000004 -0.000002 -0.000003 0.000002 -0.000001 -0.000001 0.000001 0.000000 -0.000000 0.000002 -0.000001 -0.000001 0.000001 -0.000000 -0.000000 0.000001 -0.000000 0.000000 0.000001 -0.000000 0.000000 0.000001 -0.000000 0.000000 0.000001 -0.000000 0.000000 0.000001 -0.000000 0.000000 0.000001 -0.000000 0.000000 0.000001 -0.000000 0.000000 -0.000000 0.000000 0.000000 -0.000001 -0.000000 -0.000000 
4.379456 78.740341 20.158760 36.391880 -64.576590 42.417602 0.000002 -0.000001 0.000000 -57.426783 10.130435 18.104567 62.120509 -10.059945 -10.193858 -18.779364 6.240706 -1.861926 0.000000 0.000000 -0.000000 -0.000001 0.000001 -0.000000 -48.832731 0.812413 -42.637948 64.515522 6.874679 -7.646241 -34.414960 6.466529 11.424565 -0.000000 -0.000001 0.000000 -0.000001 -0.000001 -0.000000 2.014641 -2.581939 -1.850723 2.885646 -3.553439 -0.365960 2.866028 -3.558923 -0.399411 0.678157 1.070648 -1.083869 0.678160 1.070648 -1.083873 -0.000000 0.000000 0.000000 0.678160 1.070654 -1.083874 0.678166 1.070646 -1.083866 -0.000001 0.000000 -0.000000 -0.000000 0.000000 0.000000 9.324931 -2.520083 -4.826864 -17.747302 -29.602347 -45.586592 0.000067 -115.926670 0.000066 22.749309 4.634231 38.043269 -1.540036 3.690184 6.142353 3.939054 7.948704 0.746810 -0.000001 -0.000000 -0.000003 -0.214760 -0.070086 -13.650406 0.189528 1.607567 -13.447554 -0.000005 -0.000000 0.000000 0.189094 1.605694 -13.431567 0.189987 1.609444 -13.463544 0.000002 0.000001 -0.000002 1.011546 5.091639 -13.063506 0.189524 1.607576 -13.447555 0.000001 0.000003 0.000002 3.992222 18.239342 -12.016600 0.185885 -2.448406 -13.944400 0.000001 0.000002 -0.000001 0.000000 0.000001 0.000001 0.000000 0.000001 0.000001 -0.000001 0.000001 0.000001 0.000003 -0.000003 -0.000003 0.000004 -0.000003 -0.000004 0.000003 -0.000003 -0.000003 0.000003 -0.000003 -0.000003 -7.666959 0.940639 -0.576034 16.535750 14.985462 17.536926 0.000055 122.300998 -0.000054 -70.695538 -13.151236 -28.454005 -1.849273 -3.581795 -6.586126 4.637205 -8.634120 -0.225415 0.000002 -0.000002 -0.000001 0.000004 0.012186 -0.100007 -0.000005 0.000005 -0.000001 -0.000001 0.000003 0.000001 0.000006 0.012187 -0.100004 0.000002 0.000003 0.000005 0.000001 0.000002 -0.000002 -0.028314 -4.386278 -0.637397 0.000017 -0.000009 0.000017 -0.000002 0.000001 0.000001 -0.117554 -9.652111 -1.290600 0.000003 0.000002 0.000045 -0.000001 -0.000002 -0.000001 0.000000 0.000003 -0.000000 -0.000000 0.000000 0.000000 0.000000 0.000003 -0.000000 0.000000 0.000003 0.000001 0.000000 0.000003 0.000001 0.000000 0.000003 0.000001 0.000000 0.000003 0.000002 -0.000000 0.000001 0.000000 -0.000000 0.000001 0.000000 -0.000000 0.000001 0.000000 -0.000000 0.000001 0.000000 -0.000000 0.000001 0.000000 -0.000000 0.000001 0.000000 -0.000000 0.000001 0.000000 0.000000 -0.000001 0.000000 0.000002 -0.000001 0.000000 
